# xmcd
#
# Track frame offsets: 
#        182
#        16320
#        29382
#        46527
#        62307
#        81947
#        97432
#        112560
#        132002
#        145232
#        161817
#        175657
#
# Disc length: 2584 seconds
#
# Revision: 8
# Processed by: cddbd v1.5.2PL0 Copyright (c) Steve Scherf et al.
# Submitted via: ExactAudioCopy v1.3
#
DISCID=8e0a160c
DTITLE=The Mavericks - Music For All Occasions
DYEAR=1995
DGENRE=Country
TTITLE0=Foolish Heart
TTITLE1=One Step Away
TTITLE2=Here Comes The Rain
TTITLE3=Missing You
TTITLE4=The Mavericks feat. Flaco Jimenez - All You Ever Do Is Bring M
TTITLE4=e Down
TTITLE5=My Secret Flame
TTITLE6=The Writing On The Wall
TTITLE7=Loving You
TTITLE8=If You Only Knew
TTITLE9=I'm Not Gonna Cry For You
TTITLE10=The Mavericks and Trisha Yearwood - Something Stupid
TTITLE11=Blue Moon
EXTD=YEAR: 1995
EXTT0=
EXTT1=
EXTT2=
EXTT3=
EXTT4=
EXTT5=
EXTT6=
EXTT7=
EXTT8=
EXTT9=
EXTT10=
EXTT11=
PLAYORDER=
